<svg xmlns="http://www.w3.org/2000/svg" width="16" height="16">
  <path d="M 3 2 L 3 4 L 5 4 L 5 2 L 3 2 z M 7 2 L 7 4 L 9 4 L 9 2 L 7 2 z M 3 5 C 1.338 5 0 6.338 0 8 L 0 11 L 5 11 L 5 13 L 10 13 L 10 10 L 12 10 L 12 8 C 12 6.338 10.662 5 9 5 L 3 5 z M 13 7 L 13 8 L 13.5 8 L 14 8 L 14 10 L 15 10 L 15 8 L 15.5 8 L 16 8 L 16 7 L 15.5 7 L 15 7 C 14.723 7 14.5 7.223 14.5 7.5 C 14.5 7.223 14.275606 7.0277594 14 7 L 13.5 7 L 13 7 z M 1.5 9 C 1.777 9 2 9.223 2 9.5 C 2 9.777 1.777 10 1.5 10 C 1.223 10 1 9.777 1 9.5 C 1 9.223 1.223 9 1.5 9 z M 11 11 L 11 16 L 16 16 L 16 11 L 11 11 z M 12 12 L 13 12 L 13 13 L 14 13 L 14 12 L 15 12 L 15 14 L 14 14 L 14 15 L 13 15 L 13 14 L 12 14 L 12 12 z " fill="#c0bfbc" />
  <rect style="opacity:0.7" fill="#c0bfbc" width="5" height="2" x="0" y="11" />
</svg>
