<?xml version="1.0" encoding="UTF-8"?>
<svg version="1.1" viewBox="0 0 128 128" xmlns="http://www.w3.org/2000/svg">
<path d="m32 96c-2.216 0-4 1.9822-4 4.4444v11.111c0 2.4622 1.784 4.4444 4 4.4444h64c2.216 0 4-1.9822 4-4.4444v-11.111c0-2.4622-1.784-4.4444-4-4.4444z" fill="#5e5c64"/>
<path d="m32 92c-2.216 0-4 1.9822-4 4.4444v11.111c0 2.4622 1.784 4.4444 4 4.4444h64c2.216 0 4-1.9822 4-4.4444v-11.111c0-2.4622-1.784-4.4444-4-4.4444z" fill="#9a9996"/>
<path d="m12 20c-2.216 0-4 1.8297-4 4.1026v71.794c0 2.2728 1.784 4.1026 4 4.1026h104c2.216 0 4-1.8297 4-4.1026v-71.794c0-2.2728-1.784-4.1026-4-4.1026z" fill="#5e5c64"/>
<path d="m12 16c-2.216 0-4 1.784-4 4v72c0 2.216 1.784 4 4 4h104c2.216 0 4-1.784 4-4v-72c0-2.216-1.784-4-4-4z" fill="#9a9996"/>
<rect x="12" y="20" width="104" height="72" ry="0" fill="#3d3846"/>
<rect x="16" y="24" width="96" height="64" ry="0" fill="#f6f5f4"/>
<rect x="24" y="44" width="64" height="32" ry="14" fill="#3584e4"/>
<rect x="24" y="60" width="64" height="24" ry="0" fill="#3584e4"/>
<rect x="96" y="64" width="8" height="12" fill="#3584e4"/>
<rect x="92" y="56" width="8" height="8" ry="4" fill="#3584e4"/>
<rect x="92" y="56" width="4" height="8" ry="0" fill="#3584e4"/>
<rect x="92" y="60" width="8" height="4" fill="#3584e4"/>
<rect transform="scale(-1,1)" x="-108" y="56" width="8" height="8" ry="4" fill="#3584e4"/>
<rect transform="scale(-1,1)" x="-108" y="56" width="4" height="8" ry="0" fill="#3584e4"/>
<rect transform="scale(-1,1)" x="-108" y="60" width="8" height="4" fill="#3584e4"/>
<circle cx="36" cy="64" r="4" fill="#fff"/>
<rect transform="scale(1,-1)" x="96" y="-84" width="8" height="8" ry="4" fill="#3584e4"/>
<rect transform="scale(1,-1)" x="96" y="-84" width="4" height="8" ry="0" fill="#3584e4"/>
<rect transform="scale(1,-1)" x="96" y="-80" width="8" height="4" fill="#3584e4"/>
<rect x="88" y="76" width="8" height="8" fill="#3584e4"/>
<rect x="24" y="72" width="44" height="12" fill="#98c1f1"/>
<rect x="40" y="32" width="12" height="12" ry="0" fill="#f6d32d"/>
<rect x="60" y="32" width="12" height="12" fill="#f6d32d"/>
<path d="m16 24h72l-16 64h-56z" fill="#fff" opacity=".2"/>
</svg>
